<svg width="309" height="308" viewBox="0 0 309 308" fill="none" xmlns="http://www.w3.org/2000/svg">
<path d="M179.553 112.79C185.243 112.79 190.503 116.1 192.963 121.24L203.713 143.67C206.333 149.14 205.403 155.58 201.333 160.08L164.523 200.76C161.663 203.92 157.753 205.66 153.493 205.66C149.233 205.66 145.323 203.92 142.463 200.76L105.653 160.08C101.583 155.58 100.643 149.14 103.273 143.67L114.023 121.24C116.483 116.11 121.743 112.8 127.433 112.8H179.543M179.553 96.79H127.443C115.563 96.79 104.733 103.61 99.6034 114.32L88.8534 136.75C83.4334 148.05 85.3934 161.51 93.8034 170.81L130.613 211.49C136.743 218.26 145.123 221.65 153.503 221.65C161.883 221.65 170.273 218.26 176.393 211.49L213.203 170.81C221.613 161.51 223.563 148.05 218.153 136.75L207.403 114.32C202.263 103.61 191.443 96.79 179.563 96.79H179.553Z" fill="#F83D34"/>
<path d="M254.883 94.3L252.593 112.85L249.373 110.34L248.313 109.51C247.593 108.95 246.873 108.38 246.163 107.8C228.863 94.05 213.133 78.33 199.383 61.02C198.803 60.31 198.233 59.59 197.673 58.87L196.843 57.81L194.333 54.59L182.843 39.86L180.303 36.6L177.743 33.32L169.133 22.29C164.773 18.23 159.133 16 153.143 16C147.153 16 141.503 18.23 137.143 22.29L128.533 33.32C127.083 33.2 125.633 33.05 124.183 32.9C122.843 32.75 121.493 32.6 120.143 32.43L109.923 31.17L125.213 11.57C132.923 3.86 143.033 0 153.143 0C163.253 0 173.353 3.86 181.063 11.57L196.353 31.17L198.863 34.38L201.373 37.6L210.293 49.03C211.153 50.13 212.013 51.22 212.883 52.3C213.753 53.37 214.623 54.44 215.503 55.5C216.393 56.57 217.283 57.63 218.203 58.69C227.493 69.56 237.623 79.69 248.483 88.97C249.543 89.89 250.603 90.78 251.673 91.68C252.733 92.55 253.803 93.43 254.883 94.3Z" fill="#F83D34"/>
<path d="M94.3937 52.29L112.944 54.58L110.434 57.8L109.604 58.86C109.044 59.58 108.474 60.3 107.894 61.01C94.1437 78.31 78.4237 94.04 61.1137 107.79C60.4037 108.37 59.6837 108.94 58.9637 109.5L57.9037 110.33L54.6837 112.84L39.9537 124.33L36.6937 126.87L33.4137 129.43L22.3837 138.04C18.3237 142.4 16.0937 148.04 16.0937 154.03C16.0937 160.02 18.3237 165.67 22.3837 170.03L33.4137 178.64C33.2937 180.09 33.1437 181.54 32.9937 182.99C32.8437 184.33 32.6937 185.68 32.5237 187.03L31.2637 197.25L11.6637 181.96C3.95375 174.25 0.09375 164.14 0.09375 154.03C0.09375 143.92 3.95375 133.82 11.6637 126.11L31.2637 110.82L34.4737 108.31L37.6937 105.8L49.1237 96.88C50.2237 96.02 51.3137 95.16 52.3937 94.29C53.4637 93.42 54.5337 92.55 55.5937 91.67C56.6637 90.78 57.7237 89.89 58.7837 88.97C69.6537 79.68 79.7837 69.55 89.0637 58.69C89.9837 57.63 90.8737 56.57 91.7737 55.5C92.6437 54.44 93.5237 53.37 94.3937 52.29Z" fill="#F83D34"/>
<path d="M212.883 255.81L194.333 253.52L196.843 250.3L197.673 249.24C198.233 248.52 198.803 247.8 199.383 247.09C213.133 229.79 228.854 214.06 246.163 200.31C246.873 199.73 247.593 199.16 248.313 198.6L249.373 197.77L252.593 195.26L267.324 183.77L270.583 181.23L273.863 178.67L284.893 170.06C288.953 165.7 291.183 160.06 291.183 154.07C291.183 148.08 288.953 142.43 284.893 138.07L273.863 129.46C273.983 128.01 274.133 126.56 274.283 125.11C274.433 123.77 274.583 122.42 274.753 121.07L276.014 110.85L295.613 126.14C303.323 133.85 307.183 143.96 307.183 154.07C307.183 164.18 303.323 174.28 295.613 181.99L276.014 197.28L272.803 199.79L269.583 202.3L258.153 211.22C257.053 212.08 255.964 212.94 254.883 213.81C253.813 214.68 252.743 215.55 251.683 216.43C250.613 217.32 249.553 218.21 248.493 219.13C237.623 228.42 227.493 238.55 218.213 249.41C217.293 250.47 216.403 251.53 215.503 252.6C214.633 253.66 213.753 254.73 212.883 255.81Z" fill="#F83D34"/>
<path d="M51.4136 212.79L53.7036 194.24L56.9236 196.75L57.9836 197.58C58.7036 198.14 59.4236 198.71 60.1336 199.29C77.4336 213.04 93.1636 228.76 106.914 246.07C107.494 246.78 108.064 247.5 108.624 248.22L109.454 249.28L111.964 252.5L123.454 267.23L125.994 270.49L128.554 273.77L137.164 284.8C141.524 288.86 147.164 291.09 153.154 291.09C159.144 291.09 164.794 288.86 169.154 284.8L177.764 273.77C179.214 273.89 180.664 274.04 182.114 274.19C183.454 274.34 184.804 274.49 186.154 274.66L196.374 275.92L181.084 295.52C173.374 303.23 163.264 307.09 153.154 307.09C143.044 307.09 132.944 303.23 125.234 295.52L109.944 275.92L107.434 272.71L104.924 269.49L96.0036 258.06C95.1436 256.96 94.2836 255.87 93.4136 254.79C92.5436 253.72 91.6736 252.65 90.7936 251.59C89.9036 250.52 89.0136 249.46 88.0936 248.4C78.8036 237.53 68.6736 227.4 57.8136 218.12C56.7536 217.2 55.6936 216.31 54.6236 215.41C53.5636 214.54 52.4936 213.66 51.4136 212.79Z" fill="#F83D34"/>
<path d="M183.194 39.86L194.694 54.6L190.644 55.1L189.304 55.26C188.394 55.37 187.484 55.48 186.574 55.57C164.614 58.08 142.384 58.09 120.414 55.57C119.504 55.48 118.594 55.37 117.684 55.26L116.344 55.1L112.294 54.6L93.7537 52.31L89.6537 51.8L85.5237 51.29L71.6337 49.58C65.6837 49.79 60.1137 52.2 55.8837 56.44C51.6537 60.68 49.2337 66.25 49.0137 72.2L50.7237 86.09C49.6137 87.03 48.4837 87.95 47.3537 88.87C46.3037 89.71 45.2437 90.56 44.1637 91.39L36.0437 97.73L32.9937 73.06C32.9937 62.16 37.4137 52.28 44.5637 45.13C51.7137 37.98 61.5837 33.57 72.4837 33.57L97.1537 36.62L101.194 37.11L105.244 37.61L119.634 39.38C121.024 39.55 122.404 39.71 123.774 39.86C125.144 40 126.514 40.14 127.894 40.27C129.284 40.4 130.654 40.52 132.054 40.62C146.314 41.74 160.634 41.74 174.874 40.62C176.274 40.52 177.654 40.4 179.044 40.28C180.404 40.15 181.784 40.01 183.164 39.86H183.194Z" fill="#F83D34"/>
<path d="M39.2934 124.34L54.0334 112.84L54.5334 116.89L54.6934 118.23C54.8034 119.14 54.9134 120.05 55.0034 120.96C57.5134 142.92 57.5234 165.15 55.0034 187.12C54.9134 188.03 54.8034 188.94 54.6934 189.85L54.5334 191.19L54.0334 195.24L51.7434 213.78L51.2334 217.88L50.7234 222.01L49.0134 235.9C49.2234 241.85 51.6334 247.42 55.8734 251.65C60.1134 255.88 65.6834 258.3 71.6334 258.52L85.5234 256.81C86.4634 257.92 87.3834 259.05 88.3034 260.18C89.1434 261.23 89.9934 262.29 90.8234 263.37L97.1634 271.49L72.4934 274.54C61.5934 274.54 51.7134 270.12 44.5634 262.97C37.4134 255.82 33.0034 245.95 33.0034 235.05L36.0534 210.38L36.5434 206.34L37.0434 202.29L38.8134 187.9C38.9834 186.51 39.1434 185.13 39.2934 183.76C39.4334 182.39 39.5734 181.02 39.7034 179.64C39.8334 178.25 39.9534 176.88 40.0534 175.48C41.1734 161.22 41.1734 146.9 40.0534 132.66C39.9534 131.26 39.8334 129.88 39.7134 128.49C39.5834 127.13 39.4434 125.75 39.2934 124.37V124.34Z" fill="#F83D34"/>
<path d="M266.694 184.75L251.954 196.25L251.454 192.2L251.294 190.86C251.184 189.95 251.074 189.04 250.984 188.13C248.474 166.17 248.464 143.94 250.984 121.97C251.074 121.06 251.184 120.15 251.294 119.24L251.454 117.9L251.954 113.85L254.244 95.3098L254.754 91.2098L255.264 87.0798L256.974 73.1898C256.764 67.2398 254.354 61.6698 250.114 57.4398C245.874 53.2098 240.304 50.7898 234.354 50.5698L220.464 52.2798C219.524 51.1698 218.604 50.0398 217.684 48.9098C216.844 47.8598 215.994 46.7998 215.164 45.7198L208.824 37.5998L233.494 34.5498C244.394 34.5498 254.274 38.9698 261.424 46.1198C268.574 53.2698 272.984 63.1398 272.984 74.0398L269.934 98.7098L269.444 102.75L268.944 106.8L267.174 121.19C267.004 122.58 266.844 123.96 266.694 125.33C266.554 126.7 266.414 128.07 266.284 129.45C266.154 130.84 266.034 132.21 265.934 133.61C264.814 147.87 264.814 162.19 265.934 176.43C266.034 177.83 266.154 179.21 266.274 180.6C266.404 181.96 266.544 183.34 266.694 184.72V184.75Z" fill="#F83D34"/>
<path d="M123.803 268.22L112.303 253.48L116.353 252.98L117.693 252.82C118.603 252.71 119.513 252.6 120.423 252.51C142.383 250 164.613 249.99 186.583 252.51C187.493 252.6 188.403 252.71 189.313 252.82L190.653 252.98L194.703 253.48L213.243 255.77L217.343 256.28L221.473 256.79L235.363 258.5C241.313 258.29 246.883 255.88 251.113 251.64C255.343 247.4 257.763 241.83 257.983 235.88L256.273 221.99C257.383 221.05 258.513 220.13 259.643 219.21C260.693 218.37 261.753 217.52 262.833 216.69L270.953 210.35L274.003 235.02C274.003 245.92 269.583 255.8 262.433 262.95C255.283 270.1 245.413 274.51 234.513 274.51L209.843 271.46L205.803 270.97L201.753 270.47L187.363 268.7C185.973 268.53 184.593 268.37 183.223 268.22C181.853 268.08 180.483 267.94 179.103 267.81C177.713 267.68 176.343 267.56 174.943 267.46C160.683 266.34 146.363 266.34 132.123 267.46C130.723 267.56 129.343 267.68 127.953 267.8C126.593 267.93 125.213 268.07 123.833 268.22H123.803Z" fill="#F83D34"/>
</svg>
